solid OpenSCAD_Model
  facet normal -0.5 -0.866025 0
    outer loop
      vertex -53.6936 31 7.5119
      vertex -64.9519 37.5 0
      vertex -12.8741 7.43284 0
    endloop
  endfacet
  facet normal -0.5 -0.866025 0
    outer loop
      vertex -53.6936 31 52.4881
      vertex -52.1699 30.1203 51.7594
      vertex -12.8741 7.43284 60
    endloop
  endfacet
  facet normal -0.5 -0.866025 0
    outer loop
      vertex -55.8483 32.2441 10
      vertex -64.9519 37.5 0
      vertex -55.2172 31.8797 8.24065
    endloop
  endfacet
  facet normal -0.5 -0.866025 0
    outer loop
      vertex -52.1699 30.1203 11.7594
      vertex -51.5388 29.756 10
      vertex -12.8741 7.43284 0
    endloop
  endfacet
  facet normal -0.5 -0.866025 0
    outer loop
      vertex -64.9519 37.5 60
      vertex -64.9519 37.5 0
      vertex -55.8483 32.2441 10
    endloop
  endfacet
  facet normal -0.5 -0.866025 0
    outer loop
      vertex -52.1699 30.1203 8.24065
      vertex -53.6936 31 7.5119
      vertex -12.8741 7.43284 0
    endloop
  endfacet
  facet normal -0.5 -0.866025 0
    outer loop
      vertex -29.2365 16.8797 8.24065
      vertex -53.6936 31 12.4881
      vertex -12.8741 7.43284 0
    endloop
  endfacet
  facet normal -0.5 -0.866025 0
    outer loop
      vertex -64.9519 37.5 60
      vertex -55.2172 31.8797 11.7594
      vertex -53.6936 31 12.4881
    endloop
  endfacet
  facet normal -0.5 -0.866025 0
    outer loop
      vertex -53.6936 31 12.4881
      vertex -52.1699 30.1203 11.7594
      vertex -12.8741 7.43284 0
    endloop
  endfacet
  facet normal -0.5 -0.866025 0
    outer loop
      vertex -51.5388 29.756 10
      vertex -52.1699 30.1203 8.24065
      vertex -12.8741 7.43284 0
    endloop
  endfacet
  facet normal -0.5 -0.866025 0
    outer loop
      vertex -55.2172 31.8797 48.2406
      vertex -55.8483 32.2441 50
      vertex -64.9519 37.5 60
    endloop
  endfacet
  facet normal -0.5 -0.866025 0
    outer loop
      vertex -55.2172 31.8797 8.24065
      vertex -64.9519 37.5 0
      vertex -53.6936 31 7.5119
    endloop
  endfacet
  facet normal -0.5 -0.866025 0
    outer loop
      vertex -64.9519 37.5 60
      vertex -53.6936 31 12.4881
      vertex -55.2172 31.8797 48.2406
    endloop
  endfacet
  facet normal -0.5 -0.866025 0
    outer loop
      vertex -55.2172 31.8797 51.7594
      vertex -64.9519 37.5 60
      vertex -55.8483 32.2441 50
    endloop
  endfacet
  facet normal -0.5 -0.866025 0
    outer loop
      vertex -53.6936 31 52.4881
      vertex -64.9519 37.5 60
      vertex -55.2172 31.8797 51.7594
    endloop
  endfacet
  facet normal -0.5 -0.866025 0
    outer loop
      vertex -52.1699 30.1203 51.7594
      vertex -51.5388 29.756 50
      vertex -12.8741 7.43284 60
    endloop
  endfacet
  facet normal -0.5 -0.866025 0
    outer loop
      vertex -12.8741 7.43284 60
      vertex -64.9519 37.5 60
      vertex -53.6936 31 52.4881
    endloop
  endfacet
  facet normal -0.5 -0.866025 0
    outer loop
      vertex -26.1892 15.1203 11.7594
      vertex -25.5581 14.756 10
      vertex -12.8741 7.43284 0
    endloop
  endfacet
  facet normal -0.5 -0.866025 0
    outer loop
      vertex -29.2365 16.8797 48.2406
      vertex -51.5388 29.756 50
      vertex -12.8741 7.43284 0
    endloop
  endfacet
  facet normal -0.5 -0.866025 0
    outer loop
      vertex -51.5388 29.756 50
      vertex -52.1699 30.1203 48.2406
      vertex -12.8741 7.43284 0
    endloop
  endfacet
  facet normal -0.5 -0.866025 0
    outer loop
      vertex -52.1699 30.1203 48.2406
      vertex -53.6936 31 47.5119
      vertex -12.8741 7.43284 0
    endloop
  endfacet
  facet normal -0.5 -0.866025 0
    outer loop
      vertex -27.7128 16 7.5119
      vertex -29.2365 16.8797 8.24065
      vertex -12.8741 7.43284 0
    endloop
  endfacet
  facet normal -0.5 -0.866025 0
    outer loop
      vertex -55.2172 31.8797 48.2406
      vertex -53.6936 31 12.4881
      vertex -29.2365 16.8797 8.24065
    endloop
  endfacet
  facet normal -0.5 -0.866025 0
    outer loop
      vertex -27.7128 16 52.4881
      vertex -26.1892 15.1203 51.7594
      vertex -12.8741 7.43284 60
    endloop
  endfacet
  facet normal -0.5 -0.866025 0
    outer loop
      vertex -55.2172 31.8797 48.2406
      vertex -29.2365 16.8797 8.24065
      vertex -29.8676 17.2441 10
    endloop
  endfacet
  facet normal -0.5 -0.866025 0
    outer loop
      vertex -26.1892 15.1203 8.24065
      vertex -27.7128 16 7.5119
      vertex -12.8741 7.43284 0
    endloop
  endfacet
  facet normal -0.5 -0.866025 0
    outer loop
      vertex -55.2172 31.8797 48.2406
      vertex -29.8676 17.2441 10
      vertex -29.2365 16.8797 11.7594
    endloop
  endfacet
  facet normal -0.5 -0.866025 0
    outer loop
      vertex -25.5581 14.756 10
      vertex -26.1892 15.1203 8.24065
      vertex -12.8741 7.43284 0
    endloop
  endfacet
  facet normal -0.5 -0.866025 0
    outer loop
      vertex -55.2172 31.8797 48.2406
      vertex -29.2365 16.8797 11.7594
      vertex -27.7128 16 12.4881
    endloop
  endfacet
  facet normal -0.5 -0.866025 0
    outer loop
      vertex -55.2172 31.8797 48.2406
      vertex -26.1892 15.1203 11.7594
      vertex -12.8741 7.43284 0
    endloop
  endfacet
  facet normal -0.5 -0.866025 0
    outer loop
      vertex -55.2172 31.8797 48.2406
      vertex -27.7128 16 12.4881
      vertex -26.1892 15.1203 11.7594
    endloop
  endfacet
  facet normal -0.5 -0.866025 0
    outer loop
      vertex -27.7128 16 47.5119
      vertex -29.2365 16.8797 48.2406
      vertex -12.8741 7.43284 0
    endloop
  endfacet
  facet normal -0.5 -0.866025 0
    outer loop
      vertex -29.8676 17.2441 50
      vertex -51.5388 29.756 50
      vertex -29.2365 16.8797 48.2406
    endloop
  endfacet
  facet normal -0.5 -0.866025 0
    outer loop
      vertex -29.2365 16.8797 51.7594
      vertex -51.5388 29.756 50
      vertex -29.8676 17.2441 50
    endloop
  endfacet
  facet normal -0.5 -0.866025 0
    outer loop
      vertex -12.8741 7.43284 60
      vertex -51.5388 29.756 50
      vertex -29.2365 16.8797 51.7594
    endloop
  endfacet
  facet normal -0.5 -0.866025 0
    outer loop
      vertex -26.1892 15.1203 51.7594
      vertex -25.5581 14.756 50
      vertex -12.8741 7.43284 60
    endloop
  endfacet
  facet normal -0.5 -0.866025 0
    outer loop
      vertex -12.8741 7.43284 60
      vertex -29.2365 16.8797 51.7594
      vertex -27.7128 16 52.4881
    endloop
  endfacet
  facet normal -0.5 -0.866025 0
    outer loop
      vertex -12.8741 7.43284 60
      vertex -25.5581 14.756 50
      vertex -12.8741 7.43284 0
    endloop
  endfacet
  facet normal -0.5 -0.866025 0
    outer loop
      vertex -25.5581 14.756 50
      vertex -26.1892 15.1203 48.2406
      vertex -12.8741 7.43284 0
    endloop
  endfacet
  facet normal -0.5 -0.866025 0
    outer loop
      vertex -26.1892 15.1203 48.2406
      vertex -27.7128 16 47.5119
      vertex -12.8741 7.43284 0
    endloop
  endfacet
  facet normal -0.5 -0.866025 0
    outer loop
      vertex -55.8483 32.2441 10
      vertex -55.2172 31.8797 11.7594
      vertex -64.9519 37.5 60
    endloop
  endfacet
  facet normal -0.5 -0.866025 0
    outer loop
      vertex -53.6936 31 47.5119
      vertex -55.2172 31.8797 48.2406
      vertex -12.8741 7.43284 0
    endloop
  endfacet
  facet normal 0 0 -1
    outer loop
      vertex -64.9519 37.5 0
      vertex -62.9519 40.9641 0
      vertex -12.8741 7.43284 0
    endloop
  endfacet
  facet normal 0 0 -1
    outer loop
      vertex -12.8741 7.43284 0
      vertex -62.9519 40.9641 0
      vertex -12.1932 11.6586 0
    endloop
  endfacet
  facet normal 0 0 -1
    outer loop
      vertex -12.8741 7.43284 0
      vertex -12.1932 11.6586 0
      vertex 10.1945 17.6573 0
    endloop
  endfacet
  facet normal 0 0 -1
    outer loop
      vertex 10.1945 17.6573 0
      vertex 37.5 64.9519 0
      vertex 40.9641 62.9519 0
    endloop
  endfacet
  facet normal 0 0 -1
    outer loop
      vertex 12.8236 14.3185 0
      vertex 40.9641 62.9519 0
      vertex 12.8433 14.2452 0
    endloop
  endfacet
  facet normal 0 0 -1
    outer loop
      vertex 10.1945 17.6573 0
      vertex 40.9641 62.9519 0
      vertex 12.8236 14.3185 0
    endloop
  endfacet
  facet normal 0 0 -1
    outer loop
      vertex -12.8741 7.43284 0
      vertex 10.1945 17.6573 0
      vertex 12.8236 14.3185 0
    endloop
  endfacet
  facet normal -0.866025 0.5 0
    outer loop
      vertex -64.9519 37.5 0
      vertex -64.9519 37.5 60
      vertex -62.9519 40.9641 0
    endloop
  endfacet
  facet normal -0.866025 0.5 0
    outer loop
      vertex -62.9519 40.9641 0
      vertex -64.9519 37.5 60
      vertex -62.9519 40.9641 60
    endloop
  endfacet
  facet normal 0 0 1
    outer loop
      vertex -62.9519 40.9641 60
      vertex -64.9519 37.5 60
      vertex -12.8741 7.43284 60
    endloop
  endfacet
  facet normal 0 0 1
    outer loop
      vertex -12.1932 11.6586 60
      vertex -62.9519 40.9641 60
      vertex -12.8741 7.43284 60
    endloop
  endfacet
  facet normal 0 0 1
    outer loop
      vertex 40.9641 62.9519 60
      vertex 12.8236 14.3185 60
      vertex 12.8433 14.2452 60
    endloop
  endfacet
  facet normal 0 0 1
    outer loop
      vertex 10.1945 17.6573 60
      vertex -12.1932 11.6586 60
      vertex 12.8236 14.3185 60
    endloop
  endfacet
  facet normal 0 0 1
    outer loop
      vertex 40.9641 62.9519 60
      vertex 10.1945 17.6573 60
      vertex 12.8236 14.3185 60
    endloop
  endfacet
  facet normal 0 0 1
    outer loop
      vertex 12.8236 14.3185 60
      vertex -12.1932 11.6586 60
      vertex -12.8741 7.43284 60
    endloop
  endfacet
  facet normal 0 0 1
    outer loop
      vertex 37.5 64.9519 60
      vertex 10.1945 17.6573 60
      vertex 40.9641 62.9519 60
    endloop
  endfacet
  facet normal 0.258819 -0.965926 0
    outer loop
      vertex -1.72001 10.4216 51.7594
      vertex 12.8236 14.3185 60
      vertex -12.8741 7.43284 60
    endloop
  endfacet
  facet normal 0.258819 -0.965926 0
    outer loop
      vertex 1.67879 11.3323 11.7594
      vertex 12.8236 14.3185 0
      vertex -12.8741 7.43284 60
    endloop
  endfacet
  facet normal 0.258819 -0.965926 0
    outer loop
      vertex -12.8741 7.43284 0
      vertex -1.72001 10.4216 11.7594
      vertex -12.8741 7.43284 60
    endloop
  endfacet
  facet normal 0.258819 -0.965926 0
    outer loop
      vertex -1.72001 10.4216 11.7594
      vertex -0.0206095 10.8769 12.4881
      vertex -12.8741 7.43284 60
    endloop
  endfacet
  facet normal 0.258819 -0.965926 0
    outer loop
      vertex -0.0206095 10.8769 12.4881
      vertex 1.67879 11.3323 11.7594
      vertex -12.8741 7.43284 60
    endloop
  endfacet
  facet normal 0.258819 -0.965926 0
    outer loop
      vertex 2.38271 11.5209 10
      vertex 1.67879 11.3323 8.24065
      vertex 12.8236 14.3185 0
    endloop
  endfacet
  facet normal 0.258819 -0.965926 0
    outer loop
      vertex 2.38271 11.5209 50
      vertex 1.67879 11.3323 48.2406
      vertex 12.8236 14.3185 0
    endloop
  endfacet
  facet normal 0.258819 -0.965926 0
    outer loop
      vertex -12.8741 7.43284 0
      vertex 12.8236 14.3185 0
      vertex 1.67879 11.3323 8.24065
    endloop
  endfacet
  facet normal 0.258819 -0.965926 0
    outer loop
      vertex -12.8741 7.43284 0
      vertex 1.67879 11.3323 8.24065
      vertex -0.0206095 10.8769 7.5119
    endloop
  endfacet
  facet normal 0.258819 -0.965926 0
    outer loop
      vertex -12.8741 7.43284 0
      vertex -0.0206095 10.8769 7.5119
      vertex -1.72001 10.4216 8.24065
    endloop
  endfacet
  facet normal 0.258819 -0.965926 0
    outer loop
      vertex -12.8741 7.43284 0
      vertex -2.42393 10.2329 10
      vertex -1.72001 10.4216 11.7594
    endloop
  endfacet
  facet normal 0.258819 -0.965926 0
    outer loop
      vertex -12.8741 7.43284 0
      vertex -1.72001 10.4216 8.24065
      vertex -2.42393 10.2329 10
    endloop
  endfacet
  facet normal 0.258819 -0.965926 0
    outer loop
      vertex -2.42393 10.2329 50
      vertex -1.72001 10.4216 51.7594
      vertex -12.8741 7.43284 60
    endloop
  endfacet
  facet normal 0.258819 -0.965926 0
    outer loop
      vertex -0.0206095 10.8769 52.4881
      vertex 12.8236 14.3185 60
      vertex -1.72001 10.4216 51.7594
    endloop
  endfacet
  facet normal 0.258819 -0.965926 0
    outer loop
      vertex 1.67879 11.3323 51.7594
      vertex 12.8236 14.3185 60
      vertex -0.0206095 10.8769 52.4881
    endloop
  endfacet
  facet normal 0.258819 -0.965926 0
    outer loop
      vertex 2.38271 11.5209 50
      vertex 12.8236 14.3185 60
      vertex 1.67879 11.3323 51.7594
    endloop
  endfacet
  facet normal 0.258819 -0.965926 0
    outer loop
      vertex 1.67879 11.3323 48.2406
      vertex -0.0206095 10.8769 47.5119
      vertex 12.8236 14.3185 0
    endloop
  endfacet
  facet normal 0.258819 -0.965926 0
    outer loop
      vertex 12.8236 14.3185 0
      vertex 12.8236 14.3185 60
      vertex 2.38271 11.5209 50
    endloop
  endfacet
  facet normal 0.258819 -0.965926 0
    outer loop
      vertex -0.0206095 10.8769 47.5119
      vertex -1.72001 10.4216 48.2406
      vertex 12.8236 14.3185 0
    endloop
  endfacet
  facet normal 0.258819 -0.965926 0
    outer loop
      vertex 12.8236 14.3185 0
      vertex -1.72001 10.4216 48.2406
      vertex -12.8741 7.43284 60
    endloop
  endfacet
  facet normal 0.258819 -0.965926 0
    outer loop
      vertex -1.72001 10.4216 48.2406
      vertex -2.42393 10.2329 50
      vertex -12.8741 7.43284 60
    endloop
  endfacet
  facet normal 0.258819 -0.965926 0
    outer loop
      vertex 1.67879 11.3323 11.7594
      vertex 2.38271 11.5209 10
      vertex 12.8236 14.3185 0
    endloop
  endfacet
  facet normal 0.331414 -0.191342 0.923879
    outer loop
      vertex -53.6936 31 7.5119
      vertex -51.6936 34.4641 7.5119
      vertex -53.2172 35.3438 8.24065
    endloop
  endfacet
  facet normal 0.331414 -0.191342 0.923879
    outer loop
      vertex -55.2172 31.8797 8.24065
      vertex -53.6936 31 7.5119
      vertex -53.2172 35.3438 8.24065
    endloop
  endfacet
  facet normal 0.800103 -0.46194 0.382684
    outer loop
      vertex -55.2172 31.8797 8.24065
      vertex -53.2172 35.3438 8.24065
      vertex -53.8483 35.7082 10
    endloop
  endfacet
  facet normal 0.800103 -0.46194 0.382684
    outer loop
      vertex -55.8483 32.2441 10
      vertex -55.2172 31.8797 8.24065
      vertex -53.8483 35.7082 10
    endloop
  endfacet
  facet normal -0.331414 0.191342 0.923879
    outer loop
      vertex -52.1699 30.1203 8.24065
      vertex -50.1699 33.5844 8.24065
      vertex -51.6936 34.4641 7.5119
    endloop
  endfacet
  facet normal -0.331414 0.191342 0.923879
    outer loop
      vertex -53.6936 31 7.5119
      vertex -52.1699 30.1203 8.24065
      vertex -51.6936 34.4641 7.5119
    endloop
  endfacet
  facet normal -0.800103 0.46194 0.382684
    outer loop
      vertex -49.5388 33.2201 10
      vertex -50.1699 33.5844 8.24065
      vertex -51.5388 29.756 10
    endloop
  endfacet
  facet normal -0.800103 0.46194 0.382684
    outer loop
      vertex -51.5388 29.756 10
      vertex -50.1699 33.5844 8.24065
      vertex -52.1699 30.1203 8.24065
    endloop
  endfacet
  facet normal -0.800103 0.46194 -0.382684
    outer loop
      vertex -49.5388 33.2201 10
      vertex -51.5388 29.756 10
      vertex -50.1699 33.5844 11.7594
    endloop
  endfacet
  facet normal -0.800103 0.46194 -0.382684
    outer loop
      vertex -50.1699 33.5844 11.7594
      vertex -51.5388 29.756 10
      vertex -52.1699 30.1203 11.7594
    endloop
  endfacet
  facet normal -0.331414 0.191342 -0.923879
    outer loop
      vertex -50.1699 33.5844 11.7594
      vertex -52.1699 30.1203 11.7594
      vertex -51.6936 34.4641 12.4881
    endloop
  endfacet
  facet normal -0.331414 0.191342 -0.923879
    outer loop
      vertex -51.6936 34.4641 12.4881
      vertex -52.1699 30.1203 11.7594
      vertex -53.6936 31 12.4881
    endloop
  endfacet
  facet normal 0.331414 -0.191342 -0.923879
    outer loop
      vertex -51.6936 34.4641 12.4881
      vertex -53.6936 31 12.4881
      vertex -53.2172 35.3438 11.7594
    endloop
  endfacet
  facet normal 0.331414 -0.191342 -0.923879
    outer loop
      vertex -53.2172 35.3438 11.7594
      vertex -53.6936 31 12.4881
      vertex -55.2172 31.8797 11.7594
    endloop
  endfacet
  facet normal 0.800103 -0.46194 -0.382684
    outer loop
      vertex -53.8483 35.7082 10
      vertex -53.2172 35.3438 11.7594
      vertex -55.2172 31.8797 11.7594
    endloop
  endfacet
  facet normal 0.800103 -0.46194 -0.382684
    outer loop
      vertex -55.8483 32.2441 10
      vertex -53.8483 35.7082 10
      vertex -55.2172 31.8797 11.7594
    endloop
  endfacet
  facet normal 0.331414 -0.191342 0.923879
    outer loop
      vertex -53.6936 31 47.5119
      vertex -51.6936 34.4641 47.5119
      vertex -53.2172 35.3438 48.2406
    endloop
  endfacet
  facet normal 0.331414 -0.191342 0.923879
    outer loop
      vertex -55.2172 31.8797 48.2406
      vertex -53.6936 31 47.5119
      vertex -53.2172 35.3438 48.2406
    endloop
  endfacet
  facet normal 0.800103 -0.46194 0.382684
    outer loop
      vertex -55.2172 31.8797 48.2406
      vertex -53.2172 35.3438 48.2406
      vertex -53.8483 35.7082 50
    endloop
  endfacet
  facet normal 0.800103 -0.46194 0.382684
    outer loop
      vertex -55.8483 32.2441 50
      vertex -55.2172 31.8797 48.2406
      vertex -53.8483 35.7082 50
    endloop
  endfacet
  facet normal -0.331414 0.191342 0.923879
    outer loop
      vertex -52.1699 30.1203 48.2406
      vertex -50.1699 33.5844 48.2406
      vertex -51.6936 34.4641 47.5119
    endloop
  endfacet
  facet normal -0.331414 0.191342 0.923879
    outer loop
      vertex -53.6936 31 47.5119
      vertex -52.1699 30.1203 48.2406
      vertex -51.6936 34.4641 47.5119
    endloop
  endfacet
  facet normal -0.800103 0.46194 0.382684
    outer loop
      vertex -49.5388 33.2201 50
      vertex -50.1699 33.5844 48.2406
      vertex -51.5388 29.756 50
    endloop
  endfacet
  facet normal -0.800103 0.46194 0.382684
    outer loop
      vertex -51.5388 29.756 50
      vertex -50.1699 33.5844 48.2406
      vertex -52.1699 30.1203 48.2406
    endloop
  endfacet
  facet normal -0.800103 0.46194 -0.382684
    outer loop
      vertex -49.5388 33.2201 50
      vertex -51.5388 29.756 50
      vertex -50.1699 33.5844 51.7594
    endloop
  endfacet
  facet normal -0.800103 0.46194 -0.382684
    outer loop
      vertex -50.1699 33.5844 51.7594
      vertex -51.5388 29.756 50
      vertex -52.1699 30.1203 51.7594
    endloop
  endfacet
  facet normal -0.331414 0.191342 -0.923879
    outer loop
      vertex -50.1699 33.5844 51.7594
      vertex -52.1699 30.1203 51.7594
      vertex -51.6936 34.4641 52.4881
    endloop
  endfacet
  facet normal -0.331414 0.191342 -0.923879
    outer loop
      vertex -51.6936 34.4641 52.4881
      vertex -52.1699 30.1203 51.7594
      vertex -53.6936 31 52.4881
    endloop
  endfacet
  facet normal 0.331414 -0.191342 -0.923879
    outer loop
      vertex -51.6936 34.4641 52.4881
      vertex -53.6936 31 52.4881
      vertex -53.2172 35.3438 51.7594
    endloop
  endfacet
  facet normal 0.331414 -0.191342 -0.923879
    outer loop
      vertex -53.2172 35.3438 51.7594
      vertex -53.6936 31 52.4881
      vertex -55.2172 31.8797 51.7594
    endloop
  endfacet
  facet normal 0.800103 -0.46194 -0.382684
    outer loop
      vertex -53.8483 35.7082 50
      vertex -53.2172 35.3438 51.7594
      vertex -55.2172 31.8797 51.7594
    endloop
  endfacet
  facet normal 0.800103 -0.46194 -0.382684
    outer loop
      vertex -55.8483 32.2441 50
      vertex -53.8483 35.7082 50
      vertex -55.2172 31.8797 51.7594
    endloop
  endfacet
  facet normal 0.800103 -0.46194 0.382684
    outer loop
      vertex -29.2365 16.8797 8.24065
      vertex -27.2365 20.3438 8.24065
      vertex -27.8676 20.7082 10
    endloop
  endfacet
  facet normal 0.800103 -0.46194 0.382684
    outer loop
      vertex -29.8676 17.2441 10
      vertex -29.2365 16.8797 8.24065
      vertex -27.8676 20.7082 10
    endloop
  endfacet
  facet normal 0.331414 -0.191342 0.923879
    outer loop
      vertex -27.7128 16 7.5119
      vertex -25.7128 19.4641 7.5119
      vertex -27.2365 20.3438 8.24065
    endloop
  endfacet
  facet normal 0.331414 -0.191342 0.923879
    outer loop
      vertex -29.2365 16.8797 8.24065
      vertex -27.7128 16 7.5119
      vertex -27.2365 20.3438 8.24065
    endloop
  endfacet
  facet normal -0.331414 0.191342 0.923879
    outer loop
      vertex -26.1892 15.1203 8.24065
      vertex -24.1892 18.5844 8.24065
      vertex -25.7128 19.4641 7.5119
    endloop
  endfacet
  facet normal -0.331414 0.191342 0.923879
    outer loop
      vertex -27.7128 16 7.5119
      vertex -26.1892 15.1203 8.24065
      vertex -25.7128 19.4641 7.5119
    endloop
  endfacet
  facet normal -0.800103 0.46194 0.382684
    outer loop
      vertex -23.5581 18.2201 10
      vertex -24.1892 18.5844 8.24065
      vertex -25.5581 14.756 10
    endloop
  endfacet
  facet normal -0.800103 0.46194 0.382684
    outer loop
      vertex -25.5581 14.756 10
      vertex -24.1892 18.5844 8.24065
      vertex -26.1892 15.1203 8.24065
    endloop
  endfacet
  facet normal -0.800103 0.46194 -0.382684
    outer loop
      vertex -23.5581 18.2201 10
      vertex -25.5581 14.756 10
      vertex -24.1892 18.5844 11.7594
    endloop
  endfacet
  facet normal -0.800103 0.46194 -0.382684
    outer loop
      vertex -24.1892 18.5844 11.7594
      vertex -25.5581 14.756 10
      vertex -26.1892 15.1203 11.7594
    endloop
  endfacet
  facet normal -0.331414 0.191342 -0.923879
    outer loop
      vertex -24.1892 18.5844 11.7594
      vertex -26.1892 15.1203 11.7594
      vertex -25.7128 19.4641 12.4881
    endloop
  endfacet
  facet normal -0.331414 0.191342 -0.923879
    outer loop
      vertex -25.7128 19.4641 12.4881
      vertex -26.1892 15.1203 11.7594
      vertex -27.7128 16 12.4881
    endloop
  endfacet
  facet normal 0.331414 -0.191342 -0.923879
    outer loop
      vertex -25.7128 19.4641 12.4881
      vertex -27.7128 16 12.4881
      vertex -27.2365 20.3438 11.7594
    endloop
  endfacet
  facet normal 0.331414 -0.191342 -0.923879
    outer loop
      vertex -27.2365 20.3438 11.7594
      vertex -27.7128 16 12.4881
      vertex -29.2365 16.8797 11.7594
    endloop
  endfacet
  facet normal 0.800103 -0.46194 -0.382684
    outer loop
      vertex -27.8676 20.7082 10
      vertex -27.2365 20.3438 11.7594
      vertex -29.2365 16.8797 11.7594
    endloop
  endfacet
  facet normal 0.800103 -0.46194 -0.382684
    outer loop
      vertex -29.8676 17.2441 10
      vertex -27.8676 20.7082 10
      vertex -29.2365 16.8797 11.7594
    endloop
  endfacet
  facet normal 0.331414 -0.191342 0.923879
    outer loop
      vertex -27.7128 16 47.5119
      vertex -25.7128 19.4641 47.5119
      vertex -27.2365 20.3438 48.2406
    endloop
  endfacet
  facet normal 0.331414 -0.191342 0.923879
    outer loop
      vertex -29.2365 16.8797 48.2406
      vertex -27.7128 16 47.5119
      vertex -27.2365 20.3438 48.2406
    endloop
  endfacet
  facet normal 0.800103 -0.46194 0.382684
    outer loop
      vertex -29.2365 16.8797 48.2406
      vertex -27.2365 20.3438 48.2406
      vertex -27.8676 20.7082 50
    endloop
  endfacet
  facet normal 0.800103 -0.46194 0.382684
    outer loop
      vertex -29.8676 17.2441 50
      vertex -29.2365 16.8797 48.2406
      vertex -27.8676 20.7082 50
    endloop
  endfacet
  facet normal -0.331414 0.191342 0.923879
    outer loop
      vertex -26.1892 15.1203 48.2406
      vertex -24.1892 18.5844 48.2406
      vertex -25.7128 19.4641 47.5119
    endloop
  endfacet
  facet normal -0.331414 0.191342 0.923879
    outer loop
      vertex -27.7128 16 47.5119
      vertex -26.1892 15.1203 48.2406
      vertex -25.7128 19.4641 47.5119
    endloop
  endfacet
  facet normal -0.800103 0.46194 0.382684
    outer loop
      vertex -23.5581 18.2201 50
      vertex -24.1892 18.5844 48.2406
      vertex -25.5581 14.756 50
    endloop
  endfacet
  facet normal -0.800103 0.46194 0.382684
    outer loop
      vertex -25.5581 14.756 50
      vertex -24.1892 18.5844 48.2406
      vertex -26.1892 15.1203 48.2406
    endloop
  endfacet
  facet normal -0.800103 0.46194 -0.382684
    outer loop
      vertex -23.5581 18.2201 50
      vertex -25.5581 14.756 50
      vertex -24.1892 18.5844 51.7594
    endloop
  endfacet
  facet normal -0.800103 0.46194 -0.382684
    outer loop
      vertex -24.1892 18.5844 51.7594
      vertex -25.5581 14.756 50
      vertex -26.1892 15.1203 51.7594
    endloop
  endfacet
  facet normal -0.331414 0.191342 -0.923879
    outer loop
      vertex -24.1892 18.5844 51.7594
      vertex -26.1892 15.1203 51.7594
      vertex -25.7128 19.4641 52.4881
    endloop
  endfacet
  facet normal -0.331414 0.191342 -0.923879
    outer loop
      vertex -25.7128 19.4641 52.4881
      vertex -26.1892 15.1203 51.7594
      vertex -27.7128 16 52.4881
    endloop
  endfacet
  facet normal 0.331414 -0.191342 -0.923879
    outer loop
      vertex -25.7128 19.4641 52.4881
      vertex -27.7128 16 52.4881
      vertex -27.2365 20.3438 51.7594
    endloop
  endfacet
  facet normal 0.331414 -0.191342 -0.923879
    outer loop
      vertex -27.2365 20.3438 51.7594
      vertex -27.7128 16 52.4881
      vertex -29.2365 16.8797 51.7594
    endloop
  endfacet
  facet normal 0.800103 -0.46194 -0.382684
    outer loop
      vertex -27.8676 20.7082 50
      vertex -27.2365 20.3438 51.7594
      vertex -29.2365 16.8797 51.7594
    endloop
  endfacet
  facet normal 0.800103 -0.46194 -0.382684
    outer loop
      vertex -29.8676 17.2441 50
      vertex -27.8676 20.7082 50
      vertex -29.2365 16.8797 51.7594
    endloop
  endfacet
  facet normal -0.965926 -0.258819 0
    outer loop
      vertex 12.8433 14.2452 60
      vertex 12.8236 14.3185 60
      vertex 12.8433 14.2452 0
    endloop
  endfacet
  facet normal -0.965926 -0.258819 0
    outer loop
      vertex 12.8433 14.2452 0
      vertex 12.8236 14.3185 60
      vertex 12.8236 14.3185 0
    endloop
  endfacet
  facet normal 0.866025 -0.5 0
    outer loop
      vertex 19.4641 25.7128 7.5119
      vertex 12.8433 14.2452 0
      vertex 40.9641 62.9519 0
    endloop
  endfacet
  facet normal 0.866025 -0.5 0
    outer loop
      vertex 18.5844 24.1892 48.2406
      vertex 12.8433 14.2452 60
      vertex 40.9641 62.9519 0
    endloop
  endfacet
  facet normal 0.866025 -0.5 0
    outer loop
      vertex 19.4641 25.7128 52.4881
      vertex 20.3438 27.2365 51.7594
      vertex 40.9641 62.9519 60
    endloop
  endfacet
  facet normal 0.866025 -0.5 0
    outer loop
      vertex 18.2201 23.5581 10
      vertex 12.8433 14.2452 0
      vertex 18.5844 24.1892 8.24065
    endloop
  endfacet
  facet normal 0.866025 -0.5 0
    outer loop
      vertex 20.3438 27.2365 11.7594
      vertex 20.7082 27.8676 10
      vertex 40.9641 62.9519 0
    endloop
  endfacet
  facet normal 0.866025 -0.5 0
    outer loop
      vertex 12.8433 14.2452 60
      vertex 12.8433 14.2452 0
      vertex 18.2201 23.5581 10
    endloop
  endfacet
  facet normal 0.866025 -0.5 0
    outer loop
      vertex 20.3438 27.2365 8.24065
      vertex 19.4641 25.7128 7.5119
      vertex 40.9641 62.9519 0
    endloop
  endfacet
  facet normal 0.866025 -0.5 0
    outer loop
      vertex 33.5844 50.1699 8.24065
      vertex 19.4641 25.7128 12.4881
      vertex 40.9641 62.9519 0
    endloop
  endfacet
  facet normal 0.866025 -0.5 0
    outer loop
      vertex 12.8433 14.2452 60
      vertex 18.5844 24.1892 11.7594
      vertex 19.4641 25.7128 12.4881
    endloop
  endfacet
  facet normal 0.866025 -0.5 0
    outer loop
      vertex 19.4641 25.7128 12.4881
      vertex 20.3438 27.2365 11.7594
      vertex 40.9641 62.9519 0
    endloop
  endfacet
  facet normal 0.866025 -0.5 0
    outer loop
      vertex 20.7082 27.8676 10
      vertex 20.3438 27.2365 8.24065
      vertex 40.9641 62.9519 0
    endloop
  endfacet
  facet normal 0.866025 -0.5 0
    outer loop
      vertex 18.5844 24.1892 8.24065
      vertex 12.8433 14.2452 0
      vertex 19.4641 25.7128 7.5119
    endloop
  endfacet
  facet normal 0.866025 -0.5 0
    outer loop
      vertex 19.4641 25.7128 47.5119
      vertex 18.5844 24.1892 48.2406
      vertex 40.9641 62.9519 0
    endloop
  endfacet
  facet normal 0.866025 -0.5 0
    outer loop
      vertex 18.2201 23.5581 50
      vertex 12.8433 14.2452 60
      vertex 18.5844 24.1892 48.2406
    endloop
  endfacet
  facet normal 0.866025 -0.5 0
    outer loop
      vertex 18.5844 24.1892 51.7594
      vertex 12.8433 14.2452 60
      vertex 18.2201 23.5581 50
    endloop
  endfacet
  facet normal 0.866025 -0.5 0
    outer loop
      vertex 19.4641 25.7128 52.4881
      vertex 12.8433 14.2452 60
      vertex 18.5844 24.1892 51.7594
    endloop
  endfacet
  facet normal 0.866025 -0.5 0
    outer loop
      vertex 20.3438 27.2365 51.7594
      vertex 20.7082 27.8676 50
      vertex 40.9641 62.9519 60
    endloop
  endfacet
  facet normal 0.866025 -0.5 0
    outer loop
      vertex 40.9641 62.9519 60
      vertex 12.8433 14.2452 60
      vertex 19.4641 25.7128 52.4881
    endloop
  endfacet
  facet normal 0.866025 -0.5 0
    outer loop
      vertex 20.7082 27.8676 50
      vertex 20.3438 27.2365 48.2406
      vertex 40.9641 62.9519 60
    endloop
  endfacet
  facet normal 0.866025 -0.5 0
    outer loop
      vertex 35.3438 53.2172 11.7594
      vertex 35.7082 53.8483 10
      vertex 40.9641 62.9519 0
    endloop
  endfacet
  facet normal 0.866025 -0.5 0
    outer loop
      vertex 33.5844 50.1699 48.2406
      vertex 20.3438 27.2365 48.2406
      vertex 40.9641 62.9519 0
    endloop
  endfacet
  facet normal 0.866025 -0.5 0
    outer loop
      vertex 20.3438 27.2365 48.2406
      vertex 19.4641 25.7128 47.5119
      vertex 40.9641 62.9519 0
    endloop
  endfacet
  facet normal 0.866025 -0.5 0
    outer loop
      vertex 34.4641 51.6936 7.5119
      vertex 33.5844 50.1699 8.24065
      vertex 40.9641 62.9519 0
    endloop
  endfacet
  facet normal 0.866025 -0.5 0
    outer loop
      vertex 12.8433 14.2452 60
      vertex 19.4641 25.7128 12.4881
      vertex 33.5844 50.1699 8.24065
    endloop
  endfacet
  facet normal 0.866025 -0.5 0
    outer loop
      vertex 34.4641 51.6936 52.4881
      vertex 35.3438 53.2172 51.7594
      vertex 40.9641 62.9519 60
    endloop
  endfacet
  facet normal 0.866025 -0.5 0
    outer loop
      vertex 12.8433 14.2452 60
      vertex 33.5844 50.1699 8.24065
      vertex 33.2201 49.5388 10
    endloop
  endfacet
  facet normal 0.866025 -0.5 0
    outer loop
      vertex 35.3438 53.2172 8.24065
      vertex 34.4641 51.6936 7.5119
      vertex 40.9641 62.9519 0
    endloop
  endfacet
  facet normal 0.866025 -0.5 0
    outer loop
      vertex 12.8433 14.2452 60
      vertex 33.2201 49.5388 10
      vertex 33.5844 50.1699 11.7594
    endloop
  endfacet
  facet normal 0.866025 -0.5 0
    outer loop
      vertex 35.7082 53.8483 10
      vertex 35.3438 53.2172 8.24065
      vertex 40.9641 62.9519 0
    endloop
  endfacet
  facet normal 0.866025 -0.5 0
    outer loop
      vertex 12.8433 14.2452 60
      vertex 33.5844 50.1699 11.7594
      vertex 34.4641 51.6936 12.4881
    endloop
  endfacet
  facet normal 0.866025 -0.5 0
    outer loop
      vertex 12.8433 14.2452 60
      vertex 35.3438 53.2172 11.7594
      vertex 40.9641 62.9519 0
    endloop
  endfacet
  facet normal 0.866025 -0.5 0
    outer loop
      vertex 12.8433 14.2452 60
      vertex 34.4641 51.6936 12.4881
      vertex 35.3438 53.2172 11.7594
    endloop
  endfacet
  facet normal 0.866025 -0.5 0
    outer loop
      vertex 34.4641 51.6936 47.5119
      vertex 33.5844 50.1699 48.2406
      vertex 40.9641 62.9519 0
    endloop
  endfacet
  facet normal 0.866025 -0.5 0
    outer loop
      vertex 33.2201 49.5388 50
      vertex 20.3438 27.2365 48.2406
      vertex 33.5844 50.1699 48.2406
    endloop
  endfacet
  facet normal 0.866025 -0.5 0
    outer loop
      vertex 33.5844 50.1699 51.7594
      vertex 20.3438 27.2365 48.2406
      vertex 33.2201 49.5388 50
    endloop
  endfacet
  facet normal 0.866025 -0.5 0
    outer loop
      vertex 40.9641 62.9519 60
      vertex 20.3438 27.2365 48.2406
      vertex 33.5844 50.1699 51.7594
    endloop
  endfacet
  facet normal 0.866025 -0.5 0
    outer loop
      vertex 35.3438 53.2172 51.7594
      vertex 35.7082 53.8483 50
      vertex 40.9641 62.9519 60
    endloop
  endfacet
  facet normal 0.866025 -0.5 0
    outer loop
      vertex 40.9641 62.9519 60
      vertex 33.5844 50.1699 51.7594
      vertex 34.4641 51.6936 52.4881
    endloop
  endfacet
  facet normal 0.866025 -0.5 0
    outer loop
      vertex 40.9641 62.9519 60
      vertex 35.7082 53.8483 50
      vertex 40.9641 62.9519 0
    endloop
  endfacet
  facet normal 0.866025 -0.5 0
    outer loop
      vertex 35.7082 53.8483 50
      vertex 35.3438 53.2172 48.2406
      vertex 40.9641 62.9519 0
    endloop
  endfacet
  facet normal 0.866025 -0.5 0
    outer loop
      vertex 35.3438 53.2172 48.2406
      vertex 34.4641 51.6936 47.5119
      vertex 40.9641 62.9519 0
    endloop
  endfacet
  facet normal 0.866025 -0.5 0
    outer loop
      vertex 18.2201 23.5581 10
      vertex 18.5844 24.1892 11.7594
      vertex 12.8433 14.2452 60
    endloop
  endfacet
  facet normal 0.5 0.866025 0
    outer loop
      vertex 37.5 64.9519 0
      vertex 37.5 64.9519 60
      vertex 40.9641 62.9519 0
    endloop
  endfacet
  facet normal 0.5 0.866025 0
    outer loop
      vertex 40.9641 62.9519 0
      vertex 37.5 64.9519 60
      vertex 40.9641 62.9519 60
    endloop
  endfacet
  facet normal -0.866025 0.5 0
    outer loop
      vertex 16 27.7128 47.5119
      vertex 37.5 64.9519 0
      vertex 15.1203 26.1892 48.2406
    endloop
  endfacet
  facet normal -0.866025 0.5 0
    outer loop
      vertex 16.8797 29.2365 51.7594
      vertex 10.1945 17.6573 60
      vertex 37.5 64.9519 60
    endloop
  endfacet
  facet normal -0.866025 0.5 0
    outer loop
      vertex 10.1945 17.6573 0
      vertex 10.1945 17.6573 60
      vertex 14.756 25.5581 10
    endloop
  endfacet
  facet normal -0.866025 0.5 0
    outer loop
      vertex 10.1945 17.6573 0
      vertex 14.756 25.5581 10
      vertex 15.1203 26.1892 8.24065
    endloop
  endfacet
  facet normal -0.866025 0.5 0
    outer loop
      vertex 10.1945 17.6573 0
      vertex 15.1203 26.1892 8.24065
      vertex 16 27.7128 7.5119
    endloop
  endfacet
  facet normal -0.866025 0.5 0
    outer loop
      vertex 10.1945 17.6573 0
      vertex 16 27.7128 7.5119
      vertex 37.5 64.9519 0
    endloop
  endfacet
  facet normal -0.866025 0.5 0
    outer loop
      vertex 17.2441 29.8676 10
      vertex 37.5 64.9519 0
      vertex 16.8797 29.2365 8.24065
    endloop
  endfacet
  facet normal -0.866025 0.5 0
    outer loop
      vertex 16.8797 29.2365 11.7594
      vertex 10.1945 17.6573 60
      vertex 17.2441 29.8676 10
    endloop
  endfacet
  facet normal -0.866025 0.5 0
    outer loop
      vertex 15.1203 26.1892 48.2406
      vertex 10.1945 17.6573 60
      vertex 14.756 25.5581 50
    endloop
  endfacet
  facet normal -0.866025 0.5 0
    outer loop
      vertex 16 27.7128 12.4881
      vertex 10.1945 17.6573 60
      vertex 16.8797 29.2365 11.7594
    endloop
  endfacet
  facet normal -0.866025 0.5 0
    outer loop
      vertex 15.1203 26.1892 11.7594
      vertex 10.1945 17.6573 60
      vertex 16 27.7128 12.4881
    endloop
  endfacet
  facet normal -0.866025 0.5 0
    outer loop
      vertex 14.756 25.5581 10
      vertex 10.1945 17.6573 60
      vertex 15.1203 26.1892 11.7594
    endloop
  endfacet
  facet normal -0.866025 0.5 0
    outer loop
      vertex 17.2441 29.8676 10
      vertex 10.1945 17.6573 60
      vertex 15.1203 26.1892 48.2406
    endloop
  endfacet
  facet normal -0.866025 0.5 0
    outer loop
      vertex 31.8797 55.2172 11.7594
      vertex 15.1203 26.1892 48.2406
      vertex 37.5 64.9519 0
    endloop
  endfacet
  facet normal -0.866025 0.5 0
    outer loop
      vertex 16.8797 29.2365 51.7594
      vertex 37.5 64.9519 60
      vertex 17.2441 29.8676 50
    endloop
  endfacet
  facet normal -0.866025 0.5 0
    outer loop
      vertex 31 53.6936 52.4881
      vertex 16 27.7128 47.5119
      vertex 37.5 64.9519 60
    endloop
  endfacet
  facet normal -0.866025 0.5 0
    outer loop
      vertex 16 27.7128 47.5119
      vertex 16.8797 29.2365 48.2406
      vertex 37.5 64.9519 60
    endloop
  endfacet
  facet normal -0.866025 0.5 0
    outer loop
      vertex 16.8797 29.2365 48.2406
      vertex 17.2441 29.8676 50
      vertex 37.5 64.9519 60
    endloop
  endfacet
  facet normal -0.866025 0.5 0
    outer loop
      vertex 16 27.7128 52.4881
      vertex 10.1945 17.6573 60
      vertex 16.8797 29.2365 51.7594
    endloop
  endfacet
  facet normal -0.866025 0.5 0
    outer loop
      vertex 31.8797 55.2172 8.24065
      vertex 37.5 64.9519 0
      vertex 31 53.6936 7.5119
    endloop
  endfacet
  facet normal -0.866025 0.5 0
    outer loop
      vertex 15.1203 26.1892 51.7594
      vertex 10.1945 17.6573 60
      vertex 16 27.7128 52.4881
    endloop
  endfacet
  facet normal -0.866025 0.5 0
    outer loop
      vertex 14.756 25.5581 50
      vertex 10.1945 17.6573 60
      vertex 15.1203 26.1892 51.7594
    endloop
  endfacet
  facet normal -0.866025 0.5 0
    outer loop
      vertex 17.2441 29.8676 10
      vertex 15.1203 26.1892 48.2406
      vertex 29.756 51.5388 10
    endloop
  endfacet
  facet normal -0.866025 0.5 0
    outer loop
      vertex 17.2441 29.8676 10
      vertex 29.756 51.5388 10
      vertex 30.1203 52.1699 8.24065
    endloop
  endfacet
  facet normal -0.866025 0.5 0
    outer loop
      vertex 17.2441 29.8676 10
      vertex 30.1203 52.1699 8.24065
      vertex 37.5 64.9519 0
    endloop
  endfacet
  facet normal -0.866025 0.5 0
    outer loop
      vertex 30.1203 52.1699 8.24065
      vertex 31 53.6936 7.5119
      vertex 37.5 64.9519 0
    endloop
  endfacet
  facet normal -0.866025 0.5 0
    outer loop
      vertex 32.2441 55.8483 50
      vertex 37.5 64.9519 60
      vertex 31.8797 55.2172 48.2406
    endloop
  endfacet
  facet normal -0.866025 0.5 0
    outer loop
      vertex 31 53.6936 12.4881
      vertex 15.1203 26.1892 48.2406
      vertex 31.8797 55.2172 11.7594
    endloop
  endfacet
  facet normal -0.866025 0.5 0
    outer loop
      vertex 30.1203 52.1699 11.7594
      vertex 15.1203 26.1892 48.2406
      vertex 31 53.6936 12.4881
    endloop
  endfacet
  facet normal -0.866025 0.5 0
    outer loop
      vertex 31.8797 55.2172 8.24065
      vertex 32.2441 55.8483 10
      vertex 37.5 64.9519 0
    endloop
  endfacet
  facet normal -0.866025 0.5 0
    outer loop
      vertex 32.2441 55.8483 10
      vertex 31.8797 55.2172 11.7594
      vertex 37.5 64.9519 0
    endloop
  endfacet
  facet normal -0.866025 0.5 0
    outer loop
      vertex 29.756 51.5388 10
      vertex 15.1203 26.1892 48.2406
      vertex 30.1203 52.1699 11.7594
    endloop
  endfacet
  facet normal -0.866025 0.5 0
    outer loop
      vertex 37.5 64.9519 0
      vertex 16 27.7128 47.5119
      vertex 29.756 51.5388 50
    endloop
  endfacet
  facet normal -0.866025 0.5 0
    outer loop
      vertex 37.5 64.9519 0
      vertex 29.756 51.5388 50
      vertex 30.1203 52.1699 48.2406
    endloop
  endfacet
  facet normal -0.866025 0.5 0
    outer loop
      vertex 37.5 64.9519 0
      vertex 30.1203 52.1699 48.2406
      vertex 31 53.6936 47.5119
    endloop
  endfacet
  facet normal -0.866025 0.5 0
    outer loop
      vertex 37.5 64.9519 0
      vertex 31 53.6936 47.5119
      vertex 31.8797 55.2172 48.2406
    endloop
  endfacet
  facet normal -0.866025 0.5 0
    outer loop
      vertex 37.5 64.9519 0
      vertex 31.8797 55.2172 48.2406
      vertex 37.5 64.9519 60
    endloop
  endfacet
  facet normal -0.866025 0.5 0
    outer loop
      vertex 31.8797 55.2172 51.7594
      vertex 37.5 64.9519 60
      vertex 32.2441 55.8483 50
    endloop
  endfacet
  facet normal -0.866025 0.5 0
    outer loop
      vertex 31 53.6936 52.4881
      vertex 37.5 64.9519 60
      vertex 31.8797 55.2172 51.7594
    endloop
  endfacet
  facet normal -0.866025 0.5 0
    outer loop
      vertex 30.1203 52.1699 51.7594
      vertex 16 27.7128 47.5119
      vertex 31 53.6936 52.4881
    endloop
  endfacet
  facet normal -0.866025 0.5 0
    outer loop
      vertex 29.756 51.5388 50
      vertex 16 27.7128 47.5119
      vertex 30.1203 52.1699 51.7594
    endloop
  endfacet
  facet normal -0.866025 0.5 0
    outer loop
      vertex 16.8797 29.2365 8.24065
      vertex 37.5 64.9519 0
      vertex 16 27.7128 7.5119
    endloop
  endfacet
  facet normal -0.258819 0.965926 0
    outer loop
      vertex 1.37189 15.2933 10
      vertex -12.1932 11.6586 60
      vertex 10.1945 17.6573 0
    endloop
  endfacet
  facet normal -0.258819 0.965926 0
    outer loop
      vertex -2.73083 14.194 51.7594
      vertex -12.1932 11.6586 60
      vertex 10.1945 17.6573 60
    endloop
  endfacet
  facet normal -0.258819 0.965926 0
    outer loop
      vertex -12.1932 11.6586 0
      vertex -12.1932 11.6586 60
      vertex -2.73083 14.194 11.7594
    endloop
  endfacet
  facet normal -0.258819 0.965926 0
    outer loop
      vertex -12.1932 11.6586 0
      vertex -2.73083 14.194 11.7594
      vertex -3.43475 14.0054 10
    endloop
  endfacet
  facet normal -0.258819 0.965926 0
    outer loop
      vertex -12.1932 11.6586 0
      vertex -3.43475 14.0054 10
      vertex -2.73083 14.194 8.24065
    endloop
  endfacet
  facet normal -0.258819 0.965926 0
    outer loop
      vertex -12.1932 11.6586 0
      vertex -2.73083 14.194 8.24065
      vertex 10.1945 17.6573 0
    endloop
  endfacet
  facet normal -0.258819 0.965926 0
    outer loop
      vertex -2.73083 14.194 8.24065
      vertex -1.03143 14.6493 7.5119
      vertex 10.1945 17.6573 0
    endloop
  endfacet
  facet normal -0.258819 0.965926 0
    outer loop
      vertex 1.37189 15.2933 10
      vertex 10.1945 17.6573 0
      vertex 0.667975 15.1047 8.24065
    endloop
  endfacet
  facet normal -0.258819 0.965926 0
    outer loop
      vertex 0.667975 15.1047 11.7594
      vertex -12.1932 11.6586 60
      vertex 1.37189 15.2933 10
    endloop
  endfacet
  facet normal -0.258819 0.965926 0
    outer loop
      vertex -1.03143 14.6493 47.5119
      vertex 10.1945 17.6573 0
      vertex -2.73083 14.194 48.2406
    endloop
  endfacet
  facet normal -0.258819 0.965926 0
    outer loop
      vertex -1.03143 14.6493 12.4881
      vertex -12.1932 11.6586 60
      vertex 0.667975 15.1047 11.7594
    endloop
  endfacet
  facet normal -0.258819 0.965926 0
    outer loop
      vertex -2.73083 14.194 11.7594
      vertex -12.1932 11.6586 60
      vertex -1.03143 14.6493 12.4881
    endloop
  endfacet
  facet normal -0.258819 0.965926 0
    outer loop
      vertex -3.43475 14.0054 50
      vertex -12.1932 11.6586 60
      vertex -2.73083 14.194 51.7594
    endloop
  endfacet
  facet normal -0.258819 0.965926 0
    outer loop
      vertex -1.03143 14.6493 52.4881
      vertex -2.73083 14.194 51.7594
      vertex 10.1945 17.6573 60
    endloop
  endfacet
  facet normal -0.258819 0.965926 0
    outer loop
      vertex 10.1945 17.6573 0
      vertex -12.1932 11.6586 60
      vertex -3.43475 14.0054 50
    endloop
  endfacet
  facet normal -0.258819 0.965926 0
    outer loop
      vertex 10.1945 17.6573 0
      vertex -3.43475 14.0054 50
      vertex -2.73083 14.194 48.2406
    endloop
  endfacet
  facet normal -0.258819 0.965926 0
    outer loop
      vertex 0.667975 15.1047 51.7594
      vertex 10.1945 17.6573 60
      vertex 1.37189 15.2933 50
    endloop
  endfacet
  facet normal -0.258819 0.965926 0
    outer loop
      vertex 10.1945 17.6573 0
      vertex -1.03143 14.6493 47.5119
      vertex 0.667975 15.1047 48.2406
    endloop
  endfacet
  facet normal -0.258819 0.965926 0
    outer loop
      vertex 10.1945 17.6573 0
      vertex 0.667975 15.1047 48.2406
      vertex 10.1945 17.6573 60
    endloop
  endfacet
  facet normal -0.258819 0.965926 0
    outer loop
      vertex 0.667975 15.1047 48.2406
      vertex 1.37189 15.2933 50
      vertex 10.1945 17.6573 60
    endloop
  endfacet
  facet normal -0.258819 0.965926 0
    outer loop
      vertex 0.667975 15.1047 51.7594
      vertex -1.03143 14.6493 52.4881
      vertex 10.1945 17.6573 60
    endloop
  endfacet
  facet normal -0.258819 0.965926 0
    outer loop
      vertex 0.667975 15.1047 8.24065
      vertex 10.1945 17.6573 0
      vertex -1.03143 14.6493 7.5119
    endloop
  endfacet
  facet normal 0.5 0.866025 0
    outer loop
      vertex -51.6936 34.4641 47.5119
      vertex -12.1932 11.6586 0
      vertex -53.2172 35.3438 48.2406
    endloop
  endfacet
  facet normal 0.5 0.866025 0
    outer loop
      vertex -50.1699 33.5844 51.7594
      vertex -62.9519 40.9641 60
      vertex -12.1932 11.6586 60
    endloop
  endfacet
  facet normal 0.5 0.866025 0
    outer loop
      vertex -62.9519 40.9641 0
      vertex -62.9519 40.9641 60
      vertex -53.8483 35.7082 10
    endloop
  endfacet
  facet normal 0.5 0.866025 0
    outer loop
      vertex -62.9519 40.9641 0
      vertex -53.8483 35.7082 10
      vertex -53.2172 35.3438 8.24065
    endloop
  endfacet
  facet normal 0.5 0.866025 0
    outer loop
      vertex -62.9519 40.9641 0
      vertex -53.2172 35.3438 8.24065
      vertex -51.6936 34.4641 7.5119
    endloop
  endfacet
  facet normal 0.5 0.866025 0
    outer loop
      vertex -62.9519 40.9641 0
      vertex -51.6936 34.4641 7.5119
      vertex -12.1932 11.6586 0
    endloop
  endfacet
  facet normal 0.5 0.866025 0
    outer loop
      vertex -49.5388 33.2201 10
      vertex -12.1932 11.6586 0
      vertex -50.1699 33.5844 8.24065
    endloop
  endfacet
  facet normal 0.5 0.866025 0
    outer loop
      vertex -50.1699 33.5844 11.7594
      vertex -62.9519 40.9641 60
      vertex -49.5388 33.2201 10
    endloop
  endfacet
  facet normal 0.5 0.866025 0
    outer loop
      vertex -53.2172 35.3438 48.2406
      vertex -62.9519 40.9641 60
      vertex -53.8483 35.7082 50
    endloop
  endfacet
  facet normal 0.5 0.866025 0
    outer loop
      vertex -51.6936 34.4641 12.4881
      vertex -62.9519 40.9641 60
      vertex -50.1699 33.5844 11.7594
    endloop
  endfacet
  facet normal 0.5 0.866025 0
    outer loop
      vertex -53.2172 35.3438 11.7594
      vertex -62.9519 40.9641 60
      vertex -51.6936 34.4641 12.4881
    endloop
  endfacet
  facet normal 0.5 0.866025 0
    outer loop
      vertex -53.8483 35.7082 10
      vertex -62.9519 40.9641 60
      vertex -53.2172 35.3438 11.7594
    endloop
  endfacet
  facet normal 0.5 0.866025 0
    outer loop
      vertex -49.5388 33.2201 10
      vertex -62.9519 40.9641 60
      vertex -53.2172 35.3438 48.2406
    endloop
  endfacet
  facet normal 0.5 0.866025 0
    outer loop
      vertex -24.1892 18.5844 11.7594
      vertex -53.2172 35.3438 48.2406
      vertex -12.1932 11.6586 0
    endloop
  endfacet
  facet normal 0.5 0.866025 0
    outer loop
      vertex -50.1699 33.5844 51.7594
      vertex -12.1932 11.6586 60
      vertex -49.5388 33.2201 50
    endloop
  endfacet
  facet normal 0.5 0.866025 0
    outer loop
      vertex -25.7128 19.4641 52.4881
      vertex -51.6936 34.4641 47.5119
      vertex -12.1932 11.6586 60
    endloop
  endfacet
  facet normal 0.5 0.866025 0
    outer loop
      vertex -51.6936 34.4641 47.5119
      vertex -50.1699 33.5844 48.2406
      vertex -12.1932 11.6586 60
    endloop
  endfacet
  facet normal 0.5 0.866025 0
    outer loop
      vertex -50.1699 33.5844 48.2406
      vertex -49.5388 33.2201 50
      vertex -12.1932 11.6586 60
    endloop
  endfacet
  facet normal 0.5 0.866025 0
    outer loop
      vertex -51.6936 34.4641 52.4881
      vertex -62.9519 40.9641 60
      vertex -50.1699 33.5844 51.7594
    endloop
  endfacet
  facet normal 0.5 0.866025 0
    outer loop
      vertex -24.1892 18.5844 8.24065
      vertex -12.1932 11.6586 0
      vertex -25.7128 19.4641 7.5119
    endloop
  endfacet
  facet normal 0.5 0.866025 0
    outer loop
      vertex -53.2172 35.3438 51.7594
      vertex -62.9519 40.9641 60
      vertex -51.6936 34.4641 52.4881
    endloop
  endfacet
  facet normal 0.5 0.866025 0
    outer loop
      vertex -53.8483 35.7082 50
      vertex -62.9519 40.9641 60
      vertex -53.2172 35.3438 51.7594
    endloop
  endfacet
  facet normal 0.5 0.866025 0
    outer loop
      vertex -49.5388 33.2201 10
      vertex -53.2172 35.3438 48.2406
      vertex -27.8676 20.7082 10
    endloop
  endfacet
  facet normal 0.5 0.866025 0
    outer loop
      vertex -49.5388 33.2201 10
      vertex -27.8676 20.7082 10
      vertex -27.2365 20.3438 8.24065
    endloop
  endfacet
  facet normal 0.5 0.866025 0
    outer loop
      vertex -49.5388 33.2201 10
      vertex -27.2365 20.3438 8.24065
      vertex -12.1932 11.6586 0
    endloop
  endfacet
  facet normal 0.5 0.866025 0
    outer loop
      vertex -27.2365 20.3438 8.24065
      vertex -25.7128 19.4641 7.5119
      vertex -12.1932 11.6586 0
    endloop
  endfacet
  facet normal 0.5 0.866025 0
    outer loop
      vertex -23.5581 18.2201 50
      vertex -12.1932 11.6586 60
      vertex -24.1892 18.5844 48.2406
    endloop
  endfacet
  facet normal 0.5 0.866025 0
    outer loop
      vertex -25.7128 19.4641 12.4881
      vertex -53.2172 35.3438 48.2406
      vertex -24.1892 18.5844 11.7594
    endloop
  endfacet
  facet normal 0.5 0.866025 0
    outer loop
      vertex -27.2365 20.3438 11.7594
      vertex -53.2172 35.3438 48.2406
      vertex -25.7128 19.4641 12.4881
    endloop
  endfacet
  facet normal 0.5 0.866025 0
    outer loop
      vertex -24.1892 18.5844 8.24065
      vertex -23.5581 18.2201 10
      vertex -12.1932 11.6586 0
    endloop
  endfacet
  facet normal 0.5 0.866025 0
    outer loop
      vertex -23.5581 18.2201 10
      vertex -24.1892 18.5844 11.7594
      vertex -12.1932 11.6586 0
    endloop
  endfacet
  facet normal 0.5 0.866025 0
    outer loop
      vertex -27.8676 20.7082 10
      vertex -53.2172 35.3438 48.2406
      vertex -27.2365 20.3438 11.7594
    endloop
  endfacet
  facet normal 0.5 0.866025 0
    outer loop
      vertex -12.1932 11.6586 0
      vertex -51.6936 34.4641 47.5119
      vertex -27.8676 20.7082 50
    endloop
  endfacet
  facet normal 0.5 0.866025 0
    outer loop
      vertex -12.1932 11.6586 0
      vertex -27.8676 20.7082 50
      vertex -27.2365 20.3438 48.2406
    endloop
  endfacet
  facet normal 0.5 0.866025 0
    outer loop
      vertex -12.1932 11.6586 0
      vertex -27.2365 20.3438 48.2406
      vertex -25.7128 19.4641 47.5119
    endloop
  endfacet
  facet normal 0.5 0.866025 0
    outer loop
      vertex -12.1932 11.6586 0
      vertex -25.7128 19.4641 47.5119
      vertex -24.1892 18.5844 48.2406
    endloop
  endfacet
  facet normal 0.5 0.866025 0
    outer loop
      vertex -12.1932 11.6586 0
      vertex -24.1892 18.5844 48.2406
      vertex -12.1932 11.6586 60
    endloop
  endfacet
  facet normal 0.5 0.866025 0
    outer loop
      vertex -24.1892 18.5844 51.7594
      vertex -12.1932 11.6586 60
      vertex -23.5581 18.2201 50
    endloop
  endfacet
  facet normal 0.5 0.866025 0
    outer loop
      vertex -25.7128 19.4641 52.4881
      vertex -12.1932 11.6586 60
      vertex -24.1892 18.5844 51.7594
    endloop
  endfacet
  facet normal 0.5 0.866025 0
    outer loop
      vertex -27.2365 20.3438 51.7594
      vertex -51.6936 34.4641 47.5119
      vertex -25.7128 19.4641 52.4881
    endloop
  endfacet
  facet normal 0.5 0.866025 0
    outer loop
      vertex -27.8676 20.7082 50
      vertex -51.6936 34.4641 47.5119
      vertex -27.2365 20.3438 51.7594
    endloop
  endfacet
  facet normal 0.5 0.866025 0
    outer loop
      vertex -50.1699 33.5844 8.24065
      vertex -12.1932 11.6586 0
      vertex -51.6936 34.4641 7.5119
    endloop
  endfacet
  facet normal 0.369644 0.0990458 -0.923879
    outer loop
      vertex -0.0206095 10.8769 12.4881
      vertex -1.72001 10.4216 11.7594
      vertex -1.03143 14.6493 12.4881
    endloop
  endfacet
  facet normal 0.369644 0.0990458 -0.923879
    outer loop
      vertex -1.03143 14.6493 12.4881
      vertex -1.72001 10.4216 11.7594
      vertex -2.73083 14.194 11.7594
    endloop
  endfacet
  facet normal 0.892399 0.239118 -0.382684
    outer loop
      vertex -2.73083 14.194 11.7594
      vertex -1.72001 10.4216 11.7594
      vertex -2.42393 10.2329 10
    endloop
  endfacet
  facet normal 0.892399 0.239118 -0.382684
    outer loop
      vertex -3.43475 14.0054 10
      vertex -2.73083 14.194 11.7594
      vertex -2.42393 10.2329 10
    endloop
  endfacet
  facet normal 0.892399 0.239118 0.382684
    outer loop
      vertex -2.42393 10.2329 10
      vertex -1.72001 10.4216 8.24065
      vertex -2.73083 14.194 8.24065
    endloop
  endfacet
  facet normal 0.892399 0.239118 0.382684
    outer loop
      vertex -3.43475 14.0054 10
      vertex -2.42393 10.2329 10
      vertex -2.73083 14.194 8.24065
    endloop
  endfacet
  facet normal 0.369644 0.0990458 0.923879
    outer loop
      vertex -1.72001 10.4216 8.24065
      vertex -0.0206095 10.8769 7.5119
      vertex -1.03143 14.6493 7.5119
    endloop
  endfacet
  facet normal 0.369644 0.0990458 0.923879
    outer loop
      vertex -2.73083 14.194 8.24065
      vertex -1.72001 10.4216 8.24065
      vertex -1.03143 14.6493 7.5119
    endloop
  endfacet
  facet normal -0.369644 -0.0990458 0.923879
    outer loop
      vertex -0.0206095 10.8769 7.5119
      vertex 1.67879 11.3323 8.24065
      vertex 0.667975 15.1047 8.24065
    endloop
  endfacet
  facet normal -0.369644 -0.0990458 0.923879
    outer loop
      vertex -1.03143 14.6493 7.5119
      vertex -0.0206095 10.8769 7.5119
      vertex 0.667975 15.1047 8.24065
    endloop
  endfacet
  facet normal -0.892399 -0.239118 0.382684
    outer loop
      vertex 2.38271 11.5209 10
      vertex 1.37189 15.2933 10
      vertex 1.67879 11.3323 8.24065
    endloop
  endfacet
  facet normal -0.892399 -0.239118 0.382684
    outer loop
      vertex 1.67879 11.3323 8.24065
      vertex 1.37189 15.2933 10
      vertex 0.667975 15.1047 8.24065
    endloop
  endfacet
  facet normal -0.892399 -0.239118 -0.382684
    outer loop
      vertex 2.38271 11.5209 10
      vertex 1.67879 11.3323 11.7594
      vertex 1.37189 15.2933 10
    endloop
  endfacet
  facet normal -0.892399 -0.239118 -0.382684
    outer loop
      vertex 1.37189 15.2933 10
      vertex 1.67879 11.3323 11.7594
      vertex 0.667975 15.1047 11.7594
    endloop
  endfacet
  facet normal -0.369644 -0.0990458 -0.923879
    outer loop
      vertex 1.67879 11.3323 11.7594
      vertex -0.0206095 10.8769 12.4881
      vertex 0.667975 15.1047 11.7594
    endloop
  endfacet
  facet normal -0.369644 -0.0990458 -0.923879
    outer loop
      vertex 0.667975 15.1047 11.7594
      vertex -0.0206095 10.8769 12.4881
      vertex -1.03143 14.6493 12.4881
    endloop
  endfacet
  facet normal 0.369644 0.0990458 -0.923879
    outer loop
      vertex -0.0206095 10.8769 52.4881
      vertex -1.72001 10.4216 51.7594
      vertex -1.03143 14.6493 52.4881
    endloop
  endfacet
  facet normal 0.369644 0.0990458 -0.923879
    outer loop
      vertex -1.03143 14.6493 52.4881
      vertex -1.72001 10.4216 51.7594
      vertex -2.73083 14.194 51.7594
    endloop
  endfacet
  facet normal 0.892399 0.239118 -0.382684
    outer loop
      vertex -2.73083 14.194 51.7594
      vertex -1.72001 10.4216 51.7594
      vertex -2.42393 10.2329 50
    endloop
  endfacet
  facet normal 0.892399 0.239118 -0.382684
    outer loop
      vertex -3.43475 14.0054 50
      vertex -2.73083 14.194 51.7594
      vertex -2.42393 10.2329 50
    endloop
  endfacet
  facet normal 0.892399 0.239118 0.382684
    outer loop
      vertex -2.42393 10.2329 50
      vertex -1.72001 10.4216 48.2406
      vertex -2.73083 14.194 48.2406
    endloop
  endfacet
  facet normal 0.892399 0.239118 0.382684
    outer loop
      vertex -3.43475 14.0054 50
      vertex -2.42393 10.2329 50
      vertex -2.73083 14.194 48.2406
    endloop
  endfacet
  facet normal 0.369644 0.0990458 0.923879
    outer loop
      vertex -1.72001 10.4216 48.2406
      vertex -0.0206095 10.8769 47.5119
      vertex -1.03143 14.6493 47.5119
    endloop
  endfacet
  facet normal 0.369644 0.0990458 0.923879
    outer loop
      vertex -2.73083 14.194 48.2406
      vertex -1.72001 10.4216 48.2406
      vertex -1.03143 14.6493 47.5119
    endloop
  endfacet
  facet normal -0.369644 -0.0990458 0.923879
    outer loop
      vertex -0.0206095 10.8769 47.5119
      vertex 1.67879 11.3323 48.2406
      vertex 0.667975 15.1047 48.2406
    endloop
  endfacet
  facet normal -0.369644 -0.0990458 0.923879
    outer loop
      vertex -1.03143 14.6493 47.5119
      vertex -0.0206095 10.8769 47.5119
      vertex 0.667975 15.1047 48.2406
    endloop
  endfacet
  facet normal -0.892399 -0.239118 0.382684
    outer loop
      vertex 2.38271 11.5209 50
      vertex 1.37189 15.2933 50
      vertex 1.67879 11.3323 48.2406
    endloop
  endfacet
  facet normal -0.892399 -0.239118 0.382684
    outer loop
      vertex 1.67879 11.3323 48.2406
      vertex 1.37189 15.2933 50
      vertex 0.667975 15.1047 48.2406
    endloop
  endfacet
  facet normal -0.892399 -0.239118 -0.382684
    outer loop
      vertex 2.38271 11.5209 50
      vertex 1.67879 11.3323 51.7594
      vertex 1.37189 15.2933 50
    endloop
  endfacet
  facet normal -0.892399 -0.239118 -0.382684
    outer loop
      vertex 1.37189 15.2933 50
      vertex 1.67879 11.3323 51.7594
      vertex 0.667975 15.1047 51.7594
    endloop
  endfacet
  facet normal -0.369644 -0.0990458 -0.923879
    outer loop
      vertex 1.67879 11.3323 51.7594
      vertex -0.0206095 10.8769 52.4881
      vertex 0.667975 15.1047 51.7594
    endloop
  endfacet
  facet normal -0.369644 -0.0990458 -0.923879
    outer loop
      vertex 0.667975 15.1047 51.7594
      vertex -0.0206095 10.8769 52.4881
      vertex -1.03143 14.6493 52.4881
    endloop
  endfacet
  facet normal 0.191342 0.331414 0.923879
    outer loop
      vertex 18.5844 24.1892 8.24065
      vertex 19.4641 25.7128 7.5119
      vertex 16 27.7128 7.5119
    endloop
  endfacet
  facet normal 0.191342 0.331414 0.923879
    outer loop
      vertex 15.1203 26.1892 8.24065
      vertex 18.5844 24.1892 8.24065
      vertex 16 27.7128 7.5119
    endloop
  endfacet
  facet normal 0.46194 0.800103 0.382684
    outer loop
      vertex 18.5844 24.1892 8.24065
      vertex 15.1203 26.1892 8.24065
      vertex 18.2201 23.5581 10
    endloop
  endfacet
  facet normal 0.46194 0.800103 0.382684
    outer loop
      vertex 18.2201 23.5581 10
      vertex 15.1203 26.1892 8.24065
      vertex 14.756 25.5581 10
    endloop
  endfacet
  facet normal -0.191342 -0.331414 0.923879
    outer loop
      vertex 19.4641 25.7128 7.5119
      vertex 20.3438 27.2365 8.24065
      vertex 16.8797 29.2365 8.24065
    endloop
  endfacet
  facet normal -0.191342 -0.331414 0.923879
    outer loop
      vertex 16 27.7128 7.5119
      vertex 19.4641 25.7128 7.5119
      vertex 16.8797 29.2365 8.24065
    endloop
  endfacet
  facet normal -0.46194 -0.800103 0.382684
    outer loop
      vertex 20.3438 27.2365 8.24065
      vertex 20.7082 27.8676 10
      vertex 17.2441 29.8676 10
    endloop
  endfacet
  facet normal -0.46194 -0.800103 0.382684
    outer loop
      vertex 16.8797 29.2365 8.24065
      vertex 20.3438 27.2365 8.24065
      vertex 17.2441 29.8676 10
    endloop
  endfacet
  facet normal -0.46194 -0.800103 -0.382684
    outer loop
      vertex 17.2441 29.8676 10
      vertex 20.7082 27.8676 10
      vertex 20.3438 27.2365 11.7594
    endloop
  endfacet
  facet normal -0.46194 -0.800103 -0.382684
    outer loop
      vertex 16.8797 29.2365 11.7594
      vertex 17.2441 29.8676 10
      vertex 20.3438 27.2365 11.7594
    endloop
  endfacet
  facet normal -0.191342 -0.331414 -0.923879
    outer loop
      vertex 20.3438 27.2365 11.7594
      vertex 19.4641 25.7128 12.4881
      vertex 16.8797 29.2365 11.7594
    endloop
  endfacet
  facet normal -0.191342 -0.331414 -0.923879
    outer loop
      vertex 16.8797 29.2365 11.7594
      vertex 19.4641 25.7128 12.4881
      vertex 16 27.7128 12.4881
    endloop
  endfacet
  facet normal 0.191342 0.331414 -0.923879
    outer loop
      vertex 19.4641 25.7128 12.4881
      vertex 18.5844 24.1892 11.7594
      vertex 16 27.7128 12.4881
    endloop
  endfacet
  facet normal 0.191342 0.331414 -0.923879
    outer loop
      vertex 16 27.7128 12.4881
      vertex 18.5844 24.1892 11.7594
      vertex 15.1203 26.1892 11.7594
    endloop
  endfacet
  facet normal 0.46194 0.800103 -0.382684
    outer loop
      vertex 18.5844 24.1892 11.7594
      vertex 18.2201 23.5581 10
      vertex 15.1203 26.1892 11.7594
    endloop
  endfacet
  facet normal 0.46194 0.800103 -0.382684
    outer loop
      vertex 15.1203 26.1892 11.7594
      vertex 18.2201 23.5581 10
      vertex 14.756 25.5581 10
    endloop
  endfacet
  facet normal 0.191342 0.331414 0.923879
    outer loop
      vertex 18.5844 24.1892 48.2406
      vertex 19.4641 25.7128 47.5119
      vertex 16 27.7128 47.5119
    endloop
  endfacet
  facet normal 0.191342 0.331414 0.923879
    outer loop
      vertex 15.1203 26.1892 48.2406
      vertex 18.5844 24.1892 48.2406
      vertex 16 27.7128 47.5119
    endloop
  endfacet
  facet normal 0.46194 0.800103 0.382684
    outer loop
      vertex 18.5844 24.1892 48.2406
      vertex 15.1203 26.1892 48.2406
      vertex 18.2201 23.5581 50
    endloop
  endfacet
  facet normal 0.46194 0.800103 0.382684
    outer loop
      vertex 18.2201 23.5581 50
      vertex 15.1203 26.1892 48.2406
      vertex 14.756 25.5581 50
    endloop
  endfacet
  facet normal -0.191342 -0.331414 0.923879
    outer loop
      vertex 19.4641 25.7128 47.5119
      vertex 20.3438 27.2365 48.2406
      vertex 16.8797 29.2365 48.2406
    endloop
  endfacet
  facet normal -0.191342 -0.331414 0.923879
    outer loop
      vertex 16 27.7128 47.5119
      vertex 19.4641 25.7128 47.5119
      vertex 16.8797 29.2365 48.2406
    endloop
  endfacet
  facet normal -0.46194 -0.800103 0.382684
    outer loop
      vertex 20.3438 27.2365 48.2406
      vertex 20.7082 27.8676 50
      vertex 17.2441 29.8676 50
    endloop
  endfacet
  facet normal -0.46194 -0.800103 0.382684
    outer loop
      vertex 16.8797 29.2365 48.2406
      vertex 20.3438 27.2365 48.2406
      vertex 17.2441 29.8676 50
    endloop
  endfacet
  facet normal -0.46194 -0.800103 -0.382684
    outer loop
      vertex 17.2441 29.8676 50
      vertex 20.7082 27.8676 50
      vertex 20.3438 27.2365 51.7594
    endloop
  endfacet
  facet normal -0.46194 -0.800103 -0.382684
    outer loop
      vertex 16.8797 29.2365 51.7594
      vertex 17.2441 29.8676 50
      vertex 20.3438 27.2365 51.7594
    endloop
  endfacet
  facet normal -0.191342 -0.331414 -0.923879
    outer loop
      vertex 20.3438 27.2365 51.7594
      vertex 19.4641 25.7128 52.4881
      vertex 16.8797 29.2365 51.7594
    endloop
  endfacet
  facet normal -0.191342 -0.331414 -0.923879
    outer loop
      vertex 16.8797 29.2365 51.7594
      vertex 19.4641 25.7128 52.4881
      vertex 16 27.7128 52.4881
    endloop
  endfacet
  facet normal 0.191342 0.331414 -0.923879
    outer loop
      vertex 19.4641 25.7128 52.4881
      vertex 18.5844 24.1892 51.7594
      vertex 16 27.7128 52.4881
    endloop
  endfacet
  facet normal 0.191342 0.331414 -0.923879
    outer loop
      vertex 16 27.7128 52.4881
      vertex 18.5844 24.1892 51.7594
      vertex 15.1203 26.1892 51.7594
    endloop
  endfacet
  facet normal 0.46194 0.800103 -0.382684
    outer loop
      vertex 18.5844 24.1892 51.7594
      vertex 18.2201 23.5581 50
      vertex 15.1203 26.1892 51.7594
    endloop
  endfacet
  facet normal 0.46194 0.800103 -0.382684
    outer loop
      vertex 15.1203 26.1892 51.7594
      vertex 18.2201 23.5581 50
      vertex 14.756 25.5581 50
    endloop
  endfacet
  facet normal 0.191342 0.331414 0.923879
    outer loop
      vertex 33.5844 50.1699 8.24065
      vertex 34.4641 51.6936 7.5119
      vertex 31 53.6936 7.5119
    endloop
  endfacet
  facet normal 0.191342 0.331414 0.923879
    outer loop
      vertex 30.1203 52.1699 8.24065
      vertex 33.5844 50.1699 8.24065
      vertex 31 53.6936 7.5119
    endloop
  endfacet
  facet normal 0.46194 0.800103 0.382684
    outer loop
      vertex 33.5844 50.1699 8.24065
      vertex 30.1203 52.1699 8.24065
      vertex 33.2201 49.5388 10
    endloop
  endfacet
  facet normal 0.46194 0.800103 0.382684
    outer loop
      vertex 33.2201 49.5388 10
      vertex 30.1203 52.1699 8.24065
      vertex 29.756 51.5388 10
    endloop
  endfacet
  facet normal -0.191342 -0.331414 0.923879
    outer loop
      vertex 34.4641 51.6936 7.5119
      vertex 35.3438 53.2172 8.24065
      vertex 31.8797 55.2172 8.24065
    endloop
  endfacet
  facet normal -0.191342 -0.331414 0.923879
    outer loop
      vertex 31 53.6936 7.5119
      vertex 34.4641 51.6936 7.5119
      vertex 31.8797 55.2172 8.24065
    endloop
  endfacet
  facet normal -0.46194 -0.800103 0.382684
    outer loop
      vertex 35.3438 53.2172 8.24065
      vertex 35.7082 53.8483 10
      vertex 32.2441 55.8483 10
    endloop
  endfacet
  facet normal -0.46194 -0.800103 0.382684
    outer loop
      vertex 31.8797 55.2172 8.24065
      vertex 35.3438 53.2172 8.24065
      vertex 32.2441 55.8483 10
    endloop
  endfacet
  facet normal -0.46194 -0.800103 -0.382684
    outer loop
      vertex 32.2441 55.8483 10
      vertex 35.7082 53.8483 10
      vertex 35.3438 53.2172 11.7594
    endloop
  endfacet
  facet normal -0.46194 -0.800103 -0.382684
    outer loop
      vertex 31.8797 55.2172 11.7594
      vertex 32.2441 55.8483 10
      vertex 35.3438 53.2172 11.7594
    endloop
  endfacet
  facet normal -0.191342 -0.331414 -0.923879
    outer loop
      vertex 35.3438 53.2172 11.7594
      vertex 34.4641 51.6936 12.4881
      vertex 31.8797 55.2172 11.7594
    endloop
  endfacet
  facet normal -0.191342 -0.331414 -0.923879
    outer loop
      vertex 31.8797 55.2172 11.7594
      vertex 34.4641 51.6936 12.4881
      vertex 31 53.6936 12.4881
    endloop
  endfacet
  facet normal 0.191342 0.331414 -0.923879
    outer loop
      vertex 34.4641 51.6936 12.4881
      vertex 33.5844 50.1699 11.7594
      vertex 31 53.6936 12.4881
    endloop
  endfacet
  facet normal 0.191342 0.331414 -0.923879
    outer loop
      vertex 31 53.6936 12.4881
      vertex 33.5844 50.1699 11.7594
      vertex 30.1203 52.1699 11.7594
    endloop
  endfacet
  facet normal 0.46194 0.800103 -0.382684
    outer loop
      vertex 33.5844 50.1699 11.7594
      vertex 33.2201 49.5388 10
      vertex 30.1203 52.1699 11.7594
    endloop
  endfacet
  facet normal 0.46194 0.800103 -0.382684
    outer loop
      vertex 30.1203 52.1699 11.7594
      vertex 33.2201 49.5388 10
      vertex 29.756 51.5388 10
    endloop
  endfacet
  facet normal 0.191342 0.331414 0.923879
    outer loop
      vertex 33.5844 50.1699 48.2406
      vertex 34.4641 51.6936 47.5119
      vertex 31 53.6936 47.5119
    endloop
  endfacet
  facet normal 0.191342 0.331414 0.923879
    outer loop
      vertex 30.1203 52.1699 48.2406
      vertex 33.5844 50.1699 48.2406
      vertex 31 53.6936 47.5119
    endloop
  endfacet
  facet normal 0.46194 0.800103 0.382684
    outer loop
      vertex 33.5844 50.1699 48.2406
      vertex 30.1203 52.1699 48.2406
      vertex 33.2201 49.5388 50
    endloop
  endfacet
  facet normal 0.46194 0.800103 0.382684
    outer loop
      vertex 33.2201 49.5388 50
      vertex 30.1203 52.1699 48.2406
      vertex 29.756 51.5388 50
    endloop
  endfacet
  facet normal -0.191342 -0.331414 0.923879
    outer loop
      vertex 34.4641 51.6936 47.5119
      vertex 35.3438 53.2172 48.2406
      vertex 31.8797 55.2172 48.2406
    endloop
  endfacet
  facet normal -0.191342 -0.331414 0.923879
    outer loop
      vertex 31 53.6936 47.5119
      vertex 34.4641 51.6936 47.5119
      vertex 31.8797 55.2172 48.2406
    endloop
  endfacet
  facet normal -0.46194 -0.800103 0.382684
    outer loop
      vertex 35.3438 53.2172 48.2406
      vertex 35.7082 53.8483 50
      vertex 32.2441 55.8483 50
    endloop
  endfacet
  facet normal -0.46194 -0.800103 0.382684
    outer loop
      vertex 31.8797 55.2172 48.2406
      vertex 35.3438 53.2172 48.2406
      vertex 32.2441 55.8483 50
    endloop
  endfacet
  facet normal -0.46194 -0.800103 -0.382684
    outer loop
      vertex 32.2441 55.8483 50
      vertex 35.7082 53.8483 50
      vertex 35.3438 53.2172 51.7594
    endloop
  endfacet
  facet normal -0.46194 -0.800103 -0.382684
    outer loop
      vertex 31.8797 55.2172 51.7594
      vertex 32.2441 55.8483 50
      vertex 35.3438 53.2172 51.7594
    endloop
  endfacet
  facet normal -0.191342 -0.331414 -0.923879
    outer loop
      vertex 35.3438 53.2172 51.7594
      vertex 34.4641 51.6936 52.4881
      vertex 31.8797 55.2172 51.7594
    endloop
  endfacet
  facet normal -0.191342 -0.331414 -0.923879
    outer loop
      vertex 31.8797 55.2172 51.7594
      vertex 34.4641 51.6936 52.4881
      vertex 31 53.6936 52.4881
    endloop
  endfacet
  facet normal 0.191342 0.331414 -0.923879
    outer loop
      vertex 34.4641 51.6936 52.4881
      vertex 33.5844 50.1699 51.7594
      vertex 31 53.6936 52.4881
    endloop
  endfacet
  facet normal 0.191342 0.331414 -0.923879
    outer loop
      vertex 31 53.6936 52.4881
      vertex 33.5844 50.1699 51.7594
      vertex 30.1203 52.1699 51.7594
    endloop
  endfacet
  facet normal 0.46194 0.800103 -0.382684
    outer loop
      vertex 33.5844 50.1699 51.7594
      vertex 33.2201 49.5388 50
      vertex 30.1203 52.1699 51.7594
    endloop
  endfacet
  facet normal 0.46194 0.800103 -0.382684
    outer loop
      vertex 30.1203 52.1699 51.7594
      vertex 33.2201 49.5388 50
      vertex 29.756 51.5388 50
    endloop
  endfacet
endsolid OpenSCAD_Model
